<?xml version="1.0" encoding="UTF-8"?>
<svg id="Layer_1" xmlns="http://www.w3.org/2000/svg" version="1.1" viewBox="0 0 595.28 841.89">
  <!-- Generator: Adobe Illustrator 30.4.0, SVG Export Plug-In . SVG Version: 2.1.4 Build 226)  -->
  <defs>
    <style>
      .st0 {
        fill: #aab29a;
      }
    </style>
  </defs>
  <path class="st0" d="M290.69,326l-28.93,28.93c10.8.02,21.27.35,32.78,3.27-28.48,11.16-87.74,37.15-87.74,37.15l8.12,11.07c6.08-.93,89.32-43.82,155.81.66,0,0,22.34-27.88,22.68-28.86-15.94-8.4-69.26-35.71-102.72-52.21"/>
  <path class="st0" d="M289.79,307.32l-10.58-39.52c-5.41,9.35-10.94,18.24-19.22,26.76,4.58-30.24,11.7-94.56,11.7-94.56l-13.65,1.5c-2.23,5.73-6.71,99.26-78.47,134.6,0,0,12.97,33.29,13.65,34.08,15.25-9.61,65.56-42.12,96.58-62.85"/>
  <path class="st0" d="M306.42,315.89l39.52,10.59c-5.38-9.36-10.33-18.59-13.56-30.02,23.9,19.09,76.04,57.41,76.04,57.41l5.53-12.57c-3.85-4.8-82.6-55.44-77.33-135.26,0,0-35.31-5.41-36.34-5.22.7,18.01,3.7,77.84,6.15,115.06"/>
  <path class="st0" d="M129.41,542.85c-12.38,31.7-50.78,42.3-81.27,29.67-21.13-8.75-33.33-29.08-32.6-51.71.71-21.91,13.42-40.32,33.91-48.22,29.77-11.48,67.12-1.73,79.5,29.02,5.24,13.01,5.66,27.94.46,41.24M77.71,570c16.21-1.23,29.12-11.56,34.5-26.4,10.02-27.67-.93-62.68-30.31-67.41-9.07-1.46-18.21-.72-26.3,3.39-22.17,11.27-27.26,40.81-19.46,63.33,6.12,17.66,22.43,28.55,41.57,27.1"/>
  <path class="st0" d="M559.97,573.17l-12.46-24.24c-3.41-6.64-9.2-16.78-14.88-16.86l-18.61-.25.08,41.17-16.38.05-.02-100.1,40.99.25c7.26.04,13.9,2.26,20.14,5.59,9.43,6.39,13.9,17.54,11.81,28.75-2,10.7-10.21,19.23-21.49,22.31,6.88,4.67,10.85,9.83,14.38,16.35l14.46,26.72-18.03.27ZM550.23,517.01c4.57-7.38,5.46-15.85,2.65-23.72-2.52-6.62-8.3-11.8-15.8-11.88l-23.03-.24.02,42.64,19.85-.13c6.1-.04,11.82-2.2,16.31-6.67"/>
  <path class="st0" d="M448.36,546.22h-45.98s-10.33,26.74-10.33,26.74l-10.77-.03,41.11-100.48,13.01-.18,41.46,100.61-17.45.24-11.05-26.89ZM445.23,538.09l-20.03-49.06-19.55,49.02,39.58.04Z"/>
  <polygon class="st0" points="371.94 473.05 382.11 473.09 341.66 573.27 328.24 573.33 287.32 472.97 305.17 472.86 319.87 510.4 338.58 556.88 371.94 473.05"/>
  <polygon class="st0" points="229.4 564.57 228.55 572.97 162 573.03 162.05 472.95 178.39 472.93 178.34 564.51 229.4 564.57"/>
  <polygon class="st0" points="266.69 573.01 250.35 573.06 250.3 472.67 266.67 472.9 266.69 573.01"/>
  <path class="st0" d="M206.62,639.5h-3.62v-20.19h3.62v20.19ZM209.83,639.5h-5.11v-3.12h4.92c1.43,0,2.62-.26,3.56-.78.95-.52,1.66-1.3,2.14-2.34.47-1.04.71-2.33.71-3.87s-.24-2.81-.71-3.83c-.48-1.03-1.18-1.81-2.11-2.33-.93-.52-2.09-.79-3.48-.79h-5.12v-3.11h5.34c2.01,0,3.73.4,5.17,1.21,1.44.81,2.55,1.96,3.33,3.47.78,1.5,1.17,3.3,1.17,5.39s-.39,3.91-1.17,5.42c-.78,1.51-1.9,2.67-3.36,3.48-1.46.81-3.22,1.22-5.27,1.22"/>
  <polygon class="st0" points="240.43 639.5 240.43 619.32 253.75 619.32 253.75 622.38 244.05 622.38 244.05 627.78 253.03 627.78 253.03 630.81 244.05 630.81 244.05 636.44 253.79 636.44 253.79 639.5 240.43 639.5"/>
  <path class="st0" d="M281.89,639.81c-1.58,0-2.95-.25-4.12-.75-1.17-.5-2.07-1.23-2.72-2.18-.65-.95-.99-2.11-1.04-3.46h3.55c.05.73.27,1.34.64,1.84.38.49.88.86,1.52,1.11.64.25,1.35.37,2.15.37s1.51-.12,2.12-.36c.61-.24,1.09-.58,1.43-1.02.35-.44.52-.95.52-1.53,0-.52-.15-.94-.44-1.29-.29-.34-.71-.64-1.26-.88-.55-.24-1.2-.46-1.97-.65l-2.26-.57c-1.76-.43-3.11-1.09-4.06-1.98-.95-.88-1.42-2.04-1.42-3.47,0-1.19.32-2.24.96-3.13.64-.9,1.51-1.59,2.63-2.09,1.12-.5,2.38-.75,3.8-.75s2.72.25,3.81.75c1.08.5,1.93,1.2,2.55,2.09.62.9.94,1.93.96,3.1h-3.48c-.09-.91-.48-1.62-1.17-2.13-.69-.51-1.59-.76-2.7-.76-.75,0-1.4.12-1.96.35-.56.23-.99.55-1.29.95-.3.4-.45.87-.45,1.39s.16.99.49,1.34c.32.35.75.64,1.29.87.53.23,1.11.41,1.72.55l1.92.49c.81.19,1.58.44,2.3.75.72.31,1.35.69,1.9,1.15.55.46.98,1.01,1.3,1.64.31.63.47,1.37.47,2.22,0,1.2-.3,2.25-.91,3.16-.61.9-1.49,1.61-2.63,2.11s-2.52.75-4.12.75"/>
  <rect class="st0" x="310.28" y="619.32" width="3.62" height="20.19"/>
  <path class="st0" d="M344.06,639.79c-1.86,0-3.49-.42-4.9-1.27-1.4-.85-2.5-2.05-3.29-3.6-.79-1.55-1.19-3.38-1.19-5.48s.41-4.02,1.21-5.57c.81-1.55,1.91-2.75,3.31-3.58,1.4-.83,2.98-1.25,4.76-1.25,1.11,0,2.15.17,3.12.49.97.33,1.84.8,2.59,1.4.76.6,1.38,1.32,1.87,2.15.49.83.81,1.74.96,2.74h-3.69c-.15-.55-.37-1.04-.66-1.48-.29-.43-.63-.81-1.04-1.12-.41-.31-.88-.55-1.39-.71-.52-.16-1.09-.25-1.72-.25-1.11,0-2.09.28-2.95.84-.86.56-1.53,1.37-2.02,2.43-.49,1.06-.73,2.35-.73,3.87s.24,2.79.72,3.86c.49,1.06,1.16,1.87,2.03,2.44.87.56,1.87.85,3.02.85,1.03,0,1.92-.2,2.68-.6.76-.4,1.35-.96,1.77-1.69.42-.73.63-1.59.63-2.57l.85.11h-5.53v-2.83h8.18v2.43c0,1.71-.37,3.19-1.11,4.45-.74,1.26-1.76,2.23-3.05,2.92-1.3.69-2.78,1.03-4.45,1.03"/>
  <path class="st0" d="M373.58,639.5v-20.19h4.04l7,11.15c.27.42.57.92.89,1.48.32.56.65,1.19,1,1.88.35.69.69,1.44,1.02,2.24l-.41.2c-.06-.72-.12-1.48-.16-2.26-.04-.79-.07-1.54-.1-2.25-.02-.71-.03-1.3-.03-1.78v-10.67h3.66v20.19h-4.05l-6.31-10.04c-.36-.58-.72-1.18-1.08-1.8-.36-.62-.74-1.32-1.16-2.11-.42-.78-.9-1.71-1.46-2.78l.52-.11c.07.98.12,1.91.16,2.79.04.88.07,1.65.1,2.34.02.68.03,1.23.03,1.65v10.05h-3.66Z"/>
</svg>